<svg xmlns="http://www.w3.org/2000/svg" version="1.1" xmlns:xlink="http://www.w3.org/1999/xlink" xmlns:svgjs="http://svgjs.dev/svgjs" viewBox="0 0 800 800"><defs><filter id="llleaves-blur-2" x="-100%" y="-100%" width="400%" height="400%"><feGaussianBlur in="SourceGraphic" stdDeviation="2"></feGaussianBlur></filter><filter id="llleaves-blur-3" x="-100%" y="-100%" width="400%" height="400%"><feGaussianBlur in="SourceGraphic" stdDeviation="4"></feGaussianBlur></filter><filter id="llleaves-blur-4" x="-100%" y="-100%" width="400%" height="400%"><feGaussianBlur in="SourceGraphic" stdDeviation="12"></feGaussianBlur></filter></defs><g fill="hsl(205, 69%, 50%)"><path d="M422 358H472C500 358 522 380 522 408H472C444 408 422 386 422 358Z " transform="matrix(-0.3618542075760702,-0.21742394316188485,0.21742394316188485,-0.3618542075760702,559.5218157449033,624.2142626740444)" opacity="0.65"></path><path d="M492 636H542C570 636 592 658 592 686H542C514 686 492 664 492 636Z " transform="matrix(-0.36796872835188654,0.02573088006855512,-0.02573088006855512,-0.36796872835188654,758.4471624920374,890.2811924434401)" filter="url(#llleaves-blur-2)" opacity="0.57"></path><path d="M359 99H409C437 99 459 121 459 149H409C381 149 359 127 359 99Z " transform="matrix(-0.06111912768238561,-0.49777534922096167,0.49777534922096167,-0.06111912768238561,372.27357991869644,335.16888966398915)" opacity="0.77"></path><path d="M-4 487H46C74 487 96 509 96 537H46C18 537 -4 515 -4 487Z " transform="matrix(-0.38313962214661984,-0.11713753777269957,0.11713753777269957,-0.38313962214661984,3.6500032791223376,713.5558132766135)" opacity="0.61"></path><path d="M704 158H754C782 158 804 180 804 208H754C726 208 704 186 704 158Z " transform="matrix(-0.06730494769242848,0.2511854843889087,-0.2511854843889087,-0.06730494769242848,850.7148742032613,5.922950198477253)" filter="url(#llleaves-blur-3)" opacity="0.40"></path><path d="M587 21H637C665 21 687 43 687 71H637C609 71 587 49 587 21Z " transform="matrix(-0.27601354845278003,0.17247240713988243,-0.17247240713988243,-0.27601354845278003,820.7543610928556,-51.168300119277234)" filter="url(#llleaves-blur-2)" opacity="0.50"></path><path d="M66 117H116C144 117 166 139 166 167H116C88 167 66 145 66 117Z " transform="matrix(-0.2797996576743322,-0.35812723053074963,0.35812723053074963,-0.2797996576743322,97.60269355485609,223.27431013132212)" opacity="0.70"></path><path d="M91 20H141C169 20 191 42 191 70H141C113 70 91 48 91 20Z " transform="matrix(-0.1499991097700465,-0.4616497907302155,0.4616497907302155,-0.1499991097700465,141.37563389471686,116.84258043261248)" opacity="0.75"></path><path d="M703 626H753C781 626 803 648 803 676H753C725 676 703 654 703 626Z " transform="matrix(-0.05323088892591926,0.25043164279518326,-0.25043164279518326,-0.05323088892591926,956.1138588208814,497.07828166600046)" filter="url(#llleaves-blur-3)" opacity="0.39"></path><path d="M-10 676H40C68 676 90 698 90 726H40C12 726 -10 704 -10 676Z " transform="matrix(-0.38313962214661984,-0.11713753777269957,0.11713753777269957,-0.38313962214661984,-26.787829092797608,974.2663766356886)" opacity="0.61"></path><path d="M35 743H85C113 743 135 765 135 793H85C57 793 35 771 35 743Z " transform="matrix(-0.33005623356722985,-0.2869135065735679,0.2869135065735679,-0.33005623356722985,-107.29479319528559,1045.8708354383857)" opacity="0.67"></path><path d="M193 507H243C271 507 293 529 293 557H243C215 557 193 535 193 507Z " transform="matrix(-0.03533997821689746,-0.505385233999318,0.505385233999318,-0.03533997821689746,-17.277329780931098,673.6094802732237)" opacity="0.78"></path><path d="M704 275H754C782 275 804 297 804 325H754C726 325 704 303 704 275Z " transform="matrix(-0.05323088892591926,0.25043164279518326,-0.25043164279518326,-0.05323088892591926,869.2655830886981,127.14380801020761)" filter="url(#llleaves-blur-3)" opacity="0.39"></path><path d="M527 139H577C605 139 627 161 627 189H577C549 189 527 167 527 139Z " transform="matrix(-0.35363587903447125,0.06235554682033224,-0.06235554682033224,-0.35363587903447125,791.2742118814244,186.01713364632158)" filter="url(#llleaves-blur-2)" opacity="0.55"></path><path d="M620 335H670C698 335 720 357 720 385H670C642 385 620 363 620 335Z " transform="matrix(-0.12672529962084492,0.24871240434915817,-0.24871240434915817,-0.12672529962084492,844.442416311663,238.98379694956822)" filter="url(#llleaves-blur-3)" opacity="0.43"></path><path d="M258 263H308C336 263 358 285 358 313H308C280 313 258 291 258 263Z " transform="matrix(-0.035345926651602896,-0.5054703005787904,0.5054703005787904,-0.035345926651602896,173.31109884200208,453.86447945392905)" opacity="0.78"></path><path d="M230 177H280C308 177 330 199 330 227H280C252 227 230 205 230 177Z " transform="matrix(-0.017774732870126608,-0.5090017525051009,0.5090017525051009,-0.017774732870126608,182.15857119760506,348.11098674119387)" opacity="0.78"></path><path d="M566 423H616C644 423 666 445 666 473H616C588 473 566 451 566 423Z " transform="matrix(-0.25407484417676773,0.1914591278586396,-0.1914591278586396,-0.25407484417676773,858.2837932935595,443.88670743026995)" filter="url(#llleaves-blur-2)" opacity="0.49"></path><path d="M148 203H198C226 203 248 225 248 253H198C170 253 148 231 148 203Z " transform="matrix(-0.11090442846551635,-0.4803798562496564,0.4803798562496564,-0.11090442846551635,110.43246961125058,348.4014212275697)" opacity="0.76"></path><path d="M466 449H516C544 449 566 471 566 499H516C488 499 466 477 466 449Z " transform="matrix(-0.38405989013866443,-0.0957568853804445,0.0957568853804445,-0.38405989013866443,668.7861396412202,705.4549407820364)" filter="url(#llleaves-blur-2)" opacity="0.61"></path><path d="M699 32H749C777 32 799 54 799 82H749C721 82 699 60 699 32Z " transform="matrix(-0.10680810603220536,0.25162412928512534,-0.25162412928512534,-0.10680810603220536,843.3418467873739,-125.3784107907232)" filter="url(#llleaves-blur-3)" opacity="0.42"></path><path d="M619 115H669C697 115 719 137 719 165H669C641 165 619 143 619 115Z " transform="matrix(-0.1817855616225054,0.23267490845224506,-0.23267490845224506,-0.1817855616225054,823.1890279087704,9.790464872598818)" filter="url(#llleaves-blur-3)" opacity="0.45"></path><path d="M178 729H228C256 729 278 751 278 779H228C200 779 178 757 178 729Z " transform="matrix(-0.0526121177415886,-0.5005708629019446,0.5005708629019446,-0.0526121177415886,-137.43486778298404,907.7996935188012)" opacity="0.77"></path><path d="M97 552H147C175 552 197 574 197 602H147C119 602 97 580 97 552Z " transform="matrix(-0.22024557236044595,-0.41422167681364136,0.41422167681364136,-0.22024557236044595,-59.62980838448553,764.9722817435826)" opacity="0.72"></path><path d="M260 98H310C338 98 360 120 360 148H310C282 148 260 126 260 98Z " transform="matrix(0.12907760651850453,-0.5177020031708607,0.5177020031708607,0.12907760651850453,206.30859558924772,267.61107538119074)" opacity="0.82"></path><path d="M84 451H134C162 451 184 473 184 501H134C106 501 84 479 84 451Z " transform="matrix(-0.22024557236044595,-0.41422167681364136,0.41422167681364136,-0.22024557236044595,-33.656611466993525,636.3425971366003)" opacity="0.72"></path><path d="M328 190H378C406 190 428 212 428 240H378C350 240 328 218 328 190Z " transform="matrix(-0.14203212261951637,-0.464566140178905,0.464566140178905,-0.14203212261951637,331.80642221171263,421.14290735082204)" opacity="0.75"></path></g><g fill="none" stroke-width="3" stroke="hsl(205, 69%, 50%)"><path d="M528 535H578C606 535 628 557 628 585H578C550 585 528 563 528 535Z " transform="matrix(-0.31981248800200823,0.12276451209916636,-0.12276451209916636,-0.31981248800200823,831.5997448406938,668.1371052878064)" filter="url(#llleaves-blur-2)" opacity="0.52"></path><path d="M706 520H756C784 520 806 542 806 570H756C728 570 706 548 706 520Z " transform="matrix(-0.05323088892591926,0.25043164279518326,-0.25043164279518326,-0.05323088892591926,932.7277973513699,384.68451251146746)" filter="url(#llleaves-blur-3)" opacity="0.39"></path><path d="M157 106H207C235 106 257 128 257 156H207C179 156 157 134 157 106Z " transform="matrix(0.017976006409628684,-0.5147654725614368,0.5147654725614368,0.017976006409628684,135.84468976765865,235.20159598055605)" opacity="0.79"></path><path d="M2 583H52C80 583 102 605 102 633H52C24 633 2 611 2 583Z " transform="matrix(-0.3745038399996633,-0.1746340086002972,0.1746340086002972,-0.3745038399996633,-34.703277548998216,844.7793031670108)" opacity="0.63"></path><path d="M519 335H569C597 335 619 357 619 385H569C541 385 519 363 519 335Z " transform="matrix(-0.31981248800200823,0.12276451209916636,-0.12276451209916636,-0.31981248800200823,795.1685300288425,405.2794882962973)" filter="url(#llleaves-blur-2)" opacity="0.52"></path><path d="M299 551H349C377 551 399 573 399 601H349C321 601 299 579 299 551Z " transform="matrix(-0.07802851278988297,-0.492652640814964,0.492652640814964,-0.07802851278988297,92.46402985424987,792.880195011395)" opacity="0.77"></path><path d="M567 724H617C645 724 667 746 667 774H617C589 774 567 752 567 724Z " transform="matrix(-0.21706492657767884,0.21706492657767887,-0.21706492657767887,-0.21706492657767884,913.5106897051094,777.6525703082535)" filter="url(#llleaves-blur-2)" opacity="0.47"></path><path d="M687 726H737C765 726 787 748 787 776H737C709 776 687 754 687 726Z " transform="matrix(-0.0624502683336367,0.2504743455267473,-0.2504743455267473,-0.0624502683336367,971.1320812524775,613.3005588653484)" filter="url(#llleaves-blur-3)" opacity="0.39"></path><path d="M-6 32H44C72 32 94 54 94 82H44C16 82 -6 60 -6 32Z " transform="matrix(-0.38254955963579196,-0.13172237683440474,0.13172237683440474,-0.38254955963579196,53.324005144413775,84.60110947995395)" opacity="0.62"></path><path d="M605 614H655C683 614 705 636 705 664H655C627 664 605 642 605 614Z " transform="matrix(-0.1565158722787984,0.24101330800299975,-0.24101330800299975,-0.1565158722787984,911.5254001565297,581.1499256441873)" filter="url(#llleaves-blur-3)" opacity="0.44"></path><path d="M700 401H750C778 401 800 423 800 451H750C722 451 700 429 700 401Z " transform="matrix(-0.05323088892591926,0.25043164279518326,-0.25043164279518326,-0.05323088892591926,896.6070465251876,260.85262658605416)" filter="url(#llleaves-blur-3)" opacity="0.39"></path><path d="M442 730H492C520 730 542 752 542 780H492C464 780 442 758 442 730Z " transform="matrix(-0.37934782145794393,-0.153266468582442,0.153266468582442,-0.37934782145794393,562.9229443775648,1116.814707743309)" opacity="0.63"></path><path d="M363 455H413C441 455 463 477 463 505H413C385 505 363 483 363 455Z " transform="matrix(-0.22697292402506372,-0.4094699940948079,0.4094699940948079,-0.22697292402506372,310.1942204568435,758.0581110931862)" opacity="0.72"></path><path d="M492 243H542C570 243 592 265 592 293H542C514 293 492 271 492 243Z " transform="matrix(-0.36796872835188654,0.02573088006855512,-0.02573088006855512,-0.36796872835188654,748.3349266250954,352.66948220114875)" filter="url(#llleaves-blur-2)" opacity="0.57"></path><path d="M432 153H482C510 153 532 175 532 203H482C454 203 432 181 432 153Z " transform="matrix(-0.340676290673246,-0.2661654891946313,0.2661654891946313,-0.340676290673246,598.8285150278602,366.93214553165006)" opacity="0.66"></path><path d="M162 407H212C240 407 262 429 262 457H212C184 457 162 435 162 407Z " transform="matrix(-0.07802612809347123,-0.4926375844343824,0.4926375844343824,-0.07802612809347123,15.72210268016272,570.1464552364687)" opacity="0.77"></path><path d="M602 228H652C680 228 702 250 702 278H652C624 278 602 256 602 228Z " transform="matrix(-0.1565158722787984,0.24101330800299975,-0.24101330800299975,-0.1565158722787984,815.0247156505354,135.45783886858018)" filter="url(#llleaves-blur-3)" opacity="0.44"></path><path d="M389 261H439C467 261 489 283 489 311H439C411 311 389 289 389 261Z " transform="matrix(-0.304608416102865,-0.3266525342388907,0.3266525342388907,-0.304608416102865,479.300469876835,516.5184695362924)" opacity="0.69"></path><path d="M624 494H674C702 494 724 516 724 544H674C646 544 624 522 624 494Z " transform="matrix(-0.12672529962084492,0.24871240434915817,-0.24871240434915817,-0.12672529962084492,888.4945898016626,417.1382699718859)" filter="url(#llleaves-blur-3)" opacity="0.43"></path><path d="M265 655H315C343 655 365 677 365 705H315C287 705 265 683 265 655Z " transform="matrix(-0.035345926651602896,-0.5054703005787904,0.5054703005787904,-0.035345926651602896,-17.585837498322462,863.2583748054091)" opacity="0.78"></path><path d="M417 548H467C495 548 517 570 517 598H467C439 598 417 576 417 548Z " transform="matrix(-0.337825227385983,-0.2735654751476418,0.2735654751476418,-0.337825227385983,468.0113639296553,894.328932186117)" opacity="0.67"></path><path d="M152 295H202C230 295 252 317 252 345H202C174 345 152 323 152 295Z " transform="matrix(-0.07802612809347123,-0.4926375844343824,0.4926375844343824,-0.07802612809347123,60.11725085587884,444.4811530456561)" opacity="0.77"></path><path d="M-10 275H40C68 275 90 297 90 325H40C12 325 -10 303 -10 275Z " transform="matrix(-0.38313962214661984,-0.11713753777269957,0.11713753777269957,-0.38313962214661984,20.184323554054924,419.627388154894)" opacity="0.61"></path><path d="M230 350H280C308 350 330 372 330 400H280C252 400 230 378 230 350Z " transform="matrix(-0.017774732870126608,-0.5090017525051009,0.5090017525051009,-0.017774732870126608,94.1012680142226,524.1860155277258)" opacity="0.78"></path><path d="M398 19H448C476 19 498 41 498 69H448C420 69 398 47 398 19Z " transform="matrix(-0.09467466569326423,-0.4870589316029273,0.4870589316029273,-0.09467466569326423,468.98365724005356,266.3680866486151)" opacity="0.76"></path><path d="M193 19H243C271 19 293 41 293 69H243C215 69 193 47 193 19Z " transform="matrix(0.14812050816746838,-0.5165575996122841,0.5165575996122841,0.14812050816746838,184.2781821323647,163.00619434641644)" opacity="0.83"></path><path d="M268 442H318C346 442 368 464 368 492H318C290 492 268 470 268 442Z " transform="matrix(-0.052620087176054556,-0.5006466870059477,0.5006466870059477,-0.052620087176054556,100.93118489020776,650.7792271791088)" opacity="0.77"></path><path d="M-12 155H38C66 155 88 177 88 205H38C10 205 -12 183 -12 155Z " transform="matrix(-0.38381720903143346,-0.11734469687274109,0.11734469687274109,-0.38381720903143346,31.463008506101076,253.5461961068222)" opacity="0.62"></path><path d="M374 643H424C452 643 474 665 474 693H424C396 693 374 671 374 643Z " transform="matrix(-0.2691109920694171,-0.37039950408440686,0.37039950408440686,-0.2691109920694171,290.676191909049,1004.815532434159)" opacity="0.70"></path><path d="M487 36H537C565 36 587 58 587 86H537C509 86 487 64 487 36Z " transform="matrix(-0.376240620643611,-0.16751311688882242,0.16751311688882242,-0.376240620643611,728.8229131554009,173.9052216285579)" opacity="0.63"></path><path d="M325 345H375C403 345 425 367 425 395H375C347 395 325 373 325 345Z " transform="matrix(-0.14203212261951637,-0.464566140178905,0.464566140178905,-0.14203212261951637,256.37257411612376,596.7641879363103)" opacity="0.75"></path><path d="M296 16H346C374 16 396 38 396 66H346C318 66 296 44 296 16Z " transform="matrix(0.18587898133552194,-0.5106983039705747,0.5106983039705747,0.18587898133552194,260.7472419951158,210.08057493906244)" opacity="0.84"></path><path d="M-7 385H43C71 385 93 407 93 435H43C15 435 -7 413 -7 385Z " transform="matrix(-0.38313962214661984,-0.11713753777269957,0.11713753777269957,-0.38313962214661984,11.44861326549783,572.1241592043402)" opacity="0.61"></path><path d="M64 226H114C142 226 164 248 164 276H114C86 276 64 254 64 226Z " transform="matrix(-0.30019257708720637,-0.3333976329718784,0.3333976329718784,-0.30019257708720637,64.53914791200005,364.35566700768294)" opacity="0.69"></path><path d="M314 734H364C392 734 414 756 414 784H364C336 784 314 762 314 734Z " transform="matrix(-0.110879819073673,-0.48027326126260617,0.48027326126260617,-0.110879819073673,39.83284884449887,1017.9772497765065)" opacity="0.76"></path><path d="M73 341H123C151 341 173 363 173 391H123C95 391 73 369 73 341Z " transform="matrix(-0.2634273355131669,-0.37621322413451525,0.37621322413451525,-0.2634273355131669,17.70752223488695,508.68863136636446)" opacity="0.71"></path><path d="M186 608H236C264 608 286 630 286 658H236C208 658 186 636 186 608Z " transform="matrix(-0.03533997821689746,-0.505385233999318,0.505385233999318,-0.03533997821689746,-75.56861826238048,774.6411214351351)" opacity="0.78"></path><path d="M95 660H145C173 660 195 682 195 710H145C117 710 95 688 95 660Z " transform="matrix(-0.22024557236044595,-0.41422167681364136,0.41422167681364136,-0.22024557236044595,-106.80624062507968,895.9303602048833)" opacity="0.72"></path></g></svg>