<svg xmlns="http://www.w3.org/2000/svg" version="1.1" xmlns:xlink="http://www.w3.org/1999/xlink" xmlns:svgjs="http://svgjs.dev/svgjs" viewBox="0 0 800 800"><defs><filter id="llleaves-blur-2" x="-100%" y="-100%" width="400%" height="400%"><feGaussianBlur in="SourceGraphic" stdDeviation="2"></feGaussianBlur></filter><filter id="llleaves-blur-3" x="-100%" y="-100%" width="400%" height="400%"><feGaussianBlur in="SourceGraphic" stdDeviation="4"></feGaussianBlur></filter><filter id="llleaves-blur-4" x="-100%" y="-100%" width="400%" height="400%"><feGaussianBlur in="SourceGraphic" stdDeviation="12"></feGaussianBlur></filter></defs><g fill="hsl(272, 70%, 65%)"><path d="M169 648H219C247 648 269 670 269 698H219C191 698 169 676 169 648Z " transform="matrix(-0.035292326664806424,-0.5047037850562498,0.5047037850562498,-0.035292326664806424,-112.93662780326349,807.2818647727333)" opacity="0.78"></path><path d="M81 411H131C159 411 181 433 181 461H131C103 461 81 439 81 411Z " transform="matrix(-0.2635336078483513,-0.3763649967581807,0.3763649967581807,-0.2635336078483513,1.4277640415672295,600.2044675972029)" opacity="0.71"></path><path d="M491 255H541C569 255 591 277 591 305H541C513 305 491 283 491 255Z " transform="matrix(-0.38363268361355585,-0.06076144788433289,0.06076144788433289,-0.38363268361355585,731.5320764273206,420.2890947172197)" filter="url(#llleaves-blur-2)" opacity="0.60"></path><path d="M698 26H748C776 26 798 48 798 76H748C720 76 698 54 698 26Z " transform="matrix(-0.11158267956416475,0.2506188016318846,-0.2506188016318846,-0.11158267956416475,844.2454031972212,-130.7721469628773)" filter="url(#llleaves-blur-3)" opacity="0.42"></path><path d="M211 729H261C289 729 311 751 311 779H261C233 779 211 757 211 729Z " transform="matrix(-9.421869804993914e-17,-0.5129027031333326,0.5129027031333326,-9.421869804993914e-17,-125.72863816253283,887.8676055177999)" opacity="0.79"></path><path d="M305 291H355C383 291 405 313 405 341H355C327 341 305 319 305 291Z " transform="matrix(-0.04393703032350095,-0.5022025546256266,0.5022025546256266,-0.04393703032350095,211.90163850314485,508.1660084743237)" opacity="0.77"></path><path d="M706 434H756C784 434 806 456 806 484H756C728 484 706 462 706 434Z " transform="matrix(-0.06254722445084133,0.25086321527302136,-0.25086321527302136,-0.06254722445084133,918.431917495153,298.056585276532)" filter="url(#llleaves-blur-3)" opacity="0.40"></path><path d="M301 116H351C379 116 401 138 401 166H351C323 166 301 144 301 116Z " transform="matrix(0.06374735503741777,-0.5191805432918207,0.5191805432918207,0.06374735503741777,255.42022177771963,314.2439936351532)" opacity="0.80"></path><path d="M690 727H740C768 727 790 749 790 777H740C712 777 690 755 690 727Z " transform="matrix(-0.07681931074379081,0.2512646436964751,-0.2512646436964751,-0.07681931074379081,985.7973020101545,623.8322853439391)" filter="url(#llleaves-blur-3)" opacity="0.40"></path><path d="M9 192H59C87 192 109 214 109 242H59C31 242 9 220 9 192Z " transform="matrix(-0.37450432879973994,-0.17463423653151625,0.17463423653151625,-0.37450432879973994,43.20012607184563,308.570859304903)" opacity="0.63"></path><path d="M593 19H643C671 19 693 41 693 69H643C615 69 593 47 593 19Z " transform="matrix(-0.28093566309120876,0.1688031764319019,-0.1688031764319019,-0.28093566309120876,831.0689711306509,-52.17927326969975)" filter="url(#llleaves-blur-2)" opacity="0.50"></path><path d="M528 473H578C606 473 628 495 628 523H578C550 523 528 501 528 473Z " transform="matrix(-0.35701221256287824,0.056545179475795904,-0.056545179475795904,-0.35701221256287824,812.5125582402901,643.1089681193033)" filter="url(#llleaves-blur-2)" opacity="0.55"></path><path d="M609 653H659C687 653 709 675 709 703H659C631 703 609 681 609 653Z " transform="matrix(-0.2014749696853227,0.22376062275735165,-0.22376062275735165,-0.2014749696853227,943.481707252112,667.1417790495541)" filter="url(#llleaves-blur-2)" opacity="0.46"></path><path d="M593 203H643C671 203 693 225 693 253H643C615 253 593 231 593 203Z " transform="matrix(-0.23533545946026138,0.20457399384669347,-0.20457399384669347,-0.23533545946026138,840.9635710299942,150.1154067135157)" filter="url(#llleaves-blur-2)" opacity="0.48"></path><path d="M192 119H242C270 119 292 141 292 169H242C214 169 192 147 192 119Z " transform="matrix(0.06381721408381576,-0.5197494995668139,0.5197494995668139,0.06381721408381576,151.71230625409538,260.58970006709956)" opacity="0.80"></path><path d="M349 396H399C427 396 449 418 449 446H399C371 446 349 424 349 396Z " transform="matrix(-0.11883184946303438,-0.47660851612313987,0.47660851612313987,-0.11883184946303438,245.76172264790884,661.1950065570703)" opacity="0.75"></path><path d="M86 609H136C164 609 186 631 186 659H136C108 659 86 637 86 609Z " transform="matrix(-0.22041079890386148,-0.41453242274662067,0.41453242274662067,-0.22041079890386148,-96.83768737043229,830.1168559985886)" opacity="0.72"></path><path d="M575 106H625C653 106 675 128 675 156H625C597 156 575 134 575 106Z " transform="matrix(-0.3126480104681326,0.13271120678175935,-0.13271120678175935,-0.3126480104681326,837.7901746309935,89.01238513272578)" filter="url(#llleaves-blur-2)" opacity="0.52"></path><path d="M556 734H606C634 734 656 756 656 784H606C578 784 556 762 556 734Z " transform="matrix(-0.3015905648966464,0.1470955469040817,-0.1470955469040817,-0.3015905648966464,900.4094024275657,898.7673373326811)" filter="url(#llleaves-blur-2)" opacity="0.51"></path><path d="M-3 364H47C75 364 97 386 97 414H47C19 414 -3 392 -3 364Z " transform="matrix(-0.3831396221904529,-0.11713753778610068,0.11713753778610068,-0.3831396221904529,19.44106004415812,543.5467773080329)" opacity="0.61"></path><path d="M91 510H141C169 510 191 532 191 560H141C113 560 91 538 91 510Z " transform="matrix(-0.22041079890386148,-0.41453242274662067,0.41453242274662067,-0.22041079890386148,-49.696923523997555,711.3688490208394)" opacity="0.72"></path><path d="M495 371H545C573 371 595 393 595 421H545C517 421 495 399 495 371Z " transform="matrix(-0.38363268361355585,-0.06076144788433289,0.06076144788433289,-0.38363268361355585,730.0182792071921,581.0335318079296)" filter="url(#llleaves-blur-2)" opacity="0.60"></path><path d="M86 300H136C164 300 186 322 186 350H136C108 350 86 328 86 300Z " transform="matrix(-0.22041079890386148,-0.41453242274662067,0.41453242274662067,-0.22041079890386148,31.252831258273446,453.00991913729536)" opacity="0.72"></path><path d="M-1 649H49C77 649 99 671 99 699H49C21 699 -1 677 -1 649Z " transform="matrix(-0.3831396221904529,-0.11713753778610068,0.11713753778610068,-0.3831396221904529,-11.176858980499674,937.9758447078842)" opacity="0.61"></path><path d="M128 212H178C206 212 228 234 228 262H178C150 262 128 240 128 212Z " transform="matrix(-0.14239701102061933,-0.46575963636110707,0.46575963636110707,-0.14239701102061933,92.96163414408787,353.65330688416384)" opacity="0.75"></path><path d="M-4 461H46C74 461 96 483 96 511H46C18 511 -4 489 -4 461Z " transform="matrix(-0.3831396221904529,-0.11713753778610068,0.11713753778610068,-0.3831396221904529,6.695579256715902,677.5941831227207)" opacity="0.61"></path><path d="M200 284H250C278 284 300 306 300 334H250C222 334 200 312 200 284Z " transform="matrix(-0.017799085679438564,-0.5096991257207087,0.5096991257207087,-0.017799085679438564,96.95274157216065,441.92469890512365)" opacity="0.78"></path><path d="M590 308H640C668 308 690 330 690 358H640C612 358 590 336 590 308Z " transform="matrix(-0.23533545946026138,0.20457399384669347,-0.20457399384669347,-0.23533545946026138,858.7378340055162,280.4393519383832)" filter="url(#llleaves-blur-2)" opacity="0.48"></path><path d="M251 201H301C329 201 351 223 351 251H301C273 251 251 229 251 201Z " transform="matrix(0.008974187008404539,-0.5141308293787671,0.5141308293787671,0.008974187008404539,182.10520227086886,378.7252133791095)" opacity="0.79"></path><path d="M402 106H452C480 106 502 128 502 156H452C424 156 402 134 402 106Z " transform="matrix(-0.19376999154575694,-0.4352145266908793,0.4352145266908793,-0.19376999154575694,482.57093318217693,353.10083495677156)" opacity="0.73"></path><path d="M181 459H231C259 459 281 481 281 509H231C203 509 181 487 181 459Z " transform="matrix(-0.035292326664806424,-0.5047037850562498,0.5047037850562498,-0.035292326664806424,-5.124104507654607,617.66806045376)" opacity="0.78"></path><path d="M697 333H747C775 333 797 355 797 383H747C719 383 697 361 697 333Z " transform="matrix(-0.07681931074379081,0.2512646436964751,-0.2512646436964751,-0.07681931074379081,894.3367675689498,197.80662440501015)" filter="url(#llleaves-blur-3)" opacity="0.40"></path><path d="M254 384H304C332 384 354 406 354 434H304C276 434 254 412 254 384Z " transform="matrix(0.008974187008404539,-0.5141308293787671,0.5141308293787671,0.008974187008404539,90.99233793352929,561.6253296447078)" opacity="0.79"></path><path d="M379 643H429C457 643 479 665 479 693H429C401 693 379 671 379 643Z " transform="matrix(-0.20021881345571996,-0.42937063107200313,0.42937063107200313,-0.20021881345571996,228.07428941640575,985.9461681183104)" opacity="0.73"></path><path d="M262 24H312C340 24 362 46 362 74H312C284 74 262 52 262 24Z " transform="matrix(0.21396629413878504,-0.5040730002533982,0.5040730002533982,0.21396629413878504,220.54293921628255,195.78642766625975)" opacity="0.84"></path><path d="M316 726H366C394 726 416 748 416 776H366C338 776 316 754 316 726Z " transform="matrix(-0.04393703032350095,-0.5022025546256266,0.5022025546256266,-0.04393703032350095,4.926834574555812,967.8028447659285)" opacity="0.77"></path><path d="M494 646H544C572 646 594 668 594 696H544C516 696 494 674 494 646Z " transform="matrix(-0.38363268361355585,-0.06076144788433289,0.06076144788433289,-0.38363268361355585,711.925248355387,961.4717583537731)" filter="url(#llleaves-blur-2)" opacity="0.60"></path></g><g fill="none" stroke-width="3" stroke="hsl(272, 70%, 65%)"><path d="M159 365H209C237 365 259 387 259 415H209C181 415 159 393 159 365Z " transform="matrix(-0.06968637163349721,-0.49584429878380165,0.49584429878380165,-0.06968637163349721,30.18517514571826,520.8091433828785)" opacity="0.77"></path><path d="M681 524H731C759 524 781 546 781 574H731C703 574 681 552 681 524Z " transform="matrix(-0.09171383518788778,0.2519816912303045,-0.2519816912303045,-0.09171383518788778,936.3807620077831,415.1522792287978)" filter="url(#llleaves-blur-3)" opacity="0.41"></path><path d="M692 127H742C770 127 792 149 792 177H742C714 177 692 155 692 127Z " transform="matrix(-0.0966661683936353,0.2518239782081089,-0.2518239782081089,-0.0966661683936353,852.0035416357098,-20.160134234584262)" filter="url(#llleaves-blur-3)" opacity="0.41"></path><path d="M704 619H754C782 619 804 641 804 669H754C726 669 704 647 704 619Z " transform="matrix(-0.06254722445084133,0.25086321527302136,-0.25086321527302136,-0.06254722445084133,962.7165178717601,495.1295482304837)" filter="url(#llleaves-blur-3)" opacity="0.40"></path><path d="M698 231H748C776 231 798 253 798 281H748C720 281 698 259 698 231Z " transform="matrix(-0.07681931074379081,0.2512646436964751,-0.2512646436964751,-0.07681931074379081,869.7845932226531,87.71979006544706)" filter="url(#llleaves-blur-3)" opacity="0.40"></path><path d="M459 554H509C537 554 559 576 559 604H509C481 604 459 582 459 554Z " transform="matrix(-0.3731769999614649,-0.18201058418444746,0.18201058418444746,-0.3731769999614649,593.5629647375905,887.7128703275721)" opacity="0.64"></path><path d="M-5 274H45C73 274 95 296 95 324H45C17 324 -5 302 -5 274Z " transform="matrix(-0.3831396221904529,-0.11713753778610068,0.11713753778610068,-0.3831396221904529,27.217159200526275,418.82993623531996)" opacity="0.61"></path><path d="M0 734H50C78 734 100 756 100 784H50C22 784 0 762 0 734Z " transform="matrix(-0.37450432879973994,-0.17463423653151625,0.17463423653151625,-0.37450432879973994,-63.822169087433835,1051.9804973855782)" opacity="0.63"></path><path d="M419 456H469C497 456 519 478 519 506H469C441 506 419 484 419 456Z " transform="matrix(-0.32224230534221276,-0.30049581112339213,0.30049581112339213,-0.32224230534221276,475.59315605514615,776.9310842864752)" opacity="0.68"></path><path d="M-4 104H46C74 104 96 126 96 154H46C18 154 -4 132 -4 104Z " transform="matrix(-0.38340360795124717,-0.12457538383011967,0.12457538383011967,-0.38340360795124717,47.56634145167193,184.1895330818964)" opacity="0.62"></path><path d="M-7 17H43C71 17 93 39 93 67H43C15 67 -7 45 -7 17Z " transform="matrix(-0.38272556219949333,-0.1317829793770969,0.1317829793770969,-0.38272556219949333,53.92231404074015,63.74114172559388)" opacity="0.62"></path><path d="M100 724H150C178 724 200 746 200 774H150C122 774 100 752 100 724Z " transform="matrix(-0.17932818550371316,-0.4438528343872389,0.4438528343872389,-0.17932818550371316,-155.5465451304849,949.894736100367)" opacity="0.74"></path><path d="M355 546H405C433 546 455 568 455 596H405C377 596 355 574 355 546Z " transform="matrix(-0.15725216137181022,-0.4566934375940451,0.4566934375940451,-0.15725216137181022,207.9151724893834,845.7518263688919)" opacity="0.74"></path><path d="M407 313H457C485 313 507 335 507 363H457C429 363 407 341 407 313Z " transform="matrix(-0.284735783855551,-0.3516194098469992,0.3516194098469992,-0.284735783855551,468.2768926937011,594.9307652432549)" opacity="0.69"></path><path d="M-3 555H47C75 555 97 577 97 605H47C19 605 -3 583 -3 555Z " transform="matrix(-0.3831396221904529,-0.11713753778610068,0.11713753778610068,-0.3831396221904529,-2.9322096729871134,807.7264451464093)" opacity="0.61"></path><path d="M432 731H482C510 731 532 753 532 781H482C454 781 432 759 432 731Z " transform="matrix(-0.32224230534221276,-0.30049581112339213,0.30049581112339213,-0.32224230534221276,410.1459579656621,1144.4541638001879)" opacity="0.68"></path><path d="M608 417H658C686 417 708 439 708 467H658C630 467 608 445 608 417Z " transform="matrix(-0.2014749696853227,0.22376062275735165,-0.22376062275735165,-0.2014749696853227,889.4727253116919,383.81744682657524)" filter="url(#llleaves-blur-2)" opacity="0.46"></path><path d="M576 559H626C654 559 676 581 676 609H626C598 609 576 587 576 559Z " transform="matrix(-0.26806630783554597,0.1808130077135795,-0.1808130077135795,-0.26806630783554597,899.4043052097823,627.3617809472581)" filter="url(#llleaves-blur-2)" opacity="0.50"></path><path d="M374 207H424C452 207 474 229 474 257H424C396 257 374 235 374 207Z " transform="matrix(-0.20021881345571996,-0.42937063107200313,0.42937063107200313,-0.20021881345571996,409.2787904965205,460.5039122962563)" opacity="0.73"></path><path d="M367 19H417C445 19 467 41 467 69H417C389 69 367 47 367 19Z " transform="matrix(-0.026618548749835436,-0.5079121671245622,0.5079121671245622,-0.026618548749835436,405.75179947520064,256.97058983593524)" opacity="0.78"></path><path d="M283 490H333C361 490 383 512 383 540H333C305 540 283 518 283 490Z " transform="matrix(-9.407439795819216e-17,-0.5121171700209967,0.5121171700209967,-9.407439795819216e-17,69.25965743918675,685.5350176169919)" opacity="0.79"></path><path d="M92 124H142C170 124 192 146 192 174H142C114 174 92 152 92 124Z " transform="matrix(-0.18643802322131886,-0.4392204580854477,0.4392204580854477,-0.18643802322131886,103.03035104269557,239.14857050811008)" opacity="0.73"></path><path d="M481 29H531C559 29 581 51 581 79H531C503 79 481 57 481 29Z " transform="matrix(-0.3480273351336889,-0.2528566598829992,0.2528566598829992,-0.3480273351336889,702.1482553223068,207.06036249509177)" opacity="0.66"></path><path d="M483 154H533C561 154 583 176 583 204H533C505 204 483 182 483 154Z " transform="matrix(-0.3847385367700421,-0.08882389004039555,0.08882389004039555,-0.3847385367700421,722.1661637812017,295.2113314733684)" filter="url(#llleaves-blur-2)" opacity="0.61"></path><path d="M79 26H129C157 26 179 48 179 76H129C101 76 79 54 79 26Z " transform="matrix(-0.20728209636994893,-0.4249912784779158,0.4249912784779158,-0.20728209636994893,134.0648352293497,116.39526183851854)" opacity="0.73"></path><path d="M271 620H321C349 620 371 642 371 670H321C293 670 271 648 271 620Z " transform="matrix(-9.407439795819216e-17,-0.5121171700209967,0.5121171700209967,-9.407439795819216e-17,-9.315574663542805,809.38961157674)" opacity="0.79"></path><path d="M167 23H217C245 23 267 45 267 73H217C189 73 167 51 167 23Z " transform="matrix(0.11049352240567013,-0.5198311524120499,0.5198311524120499,0.11049352240567013,168.07101032219117,155.49967099794267)" opacity="0.82"></path><path d="M191 553H241C269 553 291 575 291 603H241C213 603 191 581 191 553Z " transform="matrix(-0.017799085679438564,-0.5096991257207087,0.5096991257207087,-0.017799085679438564,-49.31651501782494,711.1253608214063)" opacity="0.78"></path></g></svg>